<svg xmlns="http://www.w3.org/2000/svg" width="126" height="53" viewBox="0 0 126 53"><g><g><path fill="#fe3e57" d="M122.518 51.262a1.74 1.74 0 1 1 3.482 0c0 .959-.78 1.737-1.741 1.737a1.74 1.74 0 0 1-1.741-1.737zm-13.71 0c0-.96.78-1.739 1.741-1.739a1.74 1.74 0 0 1 0 3.476 1.74 1.74 0 0 1-1.74-1.737zm-13.492 0a1.74 1.74 0 1 1 3.482 0c0 .959-.78 1.737-1.741 1.737a1.74 1.74 0 0 1-1.741-1.737zm-13.71 0c0-.96.78-1.739 1.741-1.739a1.74 1.74 0 0 1 1.741 1.739c0 .959-.78 1.737-1.741 1.737a1.74 1.74 0 0 1-1.741-1.737zm-13.492 0a1.74 1.74 0 1 1 3.482 0c0 .959-.78 1.737-1.741 1.737a1.74 1.74 0 0 1-1.741-1.737zm-13.71 0a1.74 1.74 0 1 1 3.482 0c0 .959-.78 1.737-1.741 1.737a1.74 1.74 0 0 1-1.741-1.737zm-13.492 0a1.74 1.74 0 1 1 3.482 0c0 .959-.78 1.737-1.741 1.737a1.74 1.74 0 0 1-1.741-1.737zm-13.71 0a1.74 1.74 0 1 1 3.482 0c0 .959-.78 1.737-1.741 1.737a1.74 1.74 0 0 1-1.741-1.737zm-13.492 0a1.74 1.74 0 1 1 3.482 0c0 .959-.78 1.737-1.741 1.737a1.74 1.74 0 0 1-1.741-1.737zm-13.71 0a1.74 1.74 0 1 1 3.482 0c0 .959-.78 1.737-1.741 1.737A1.74 1.74 0 0 1 0 51.262zm122.518-16.509c0-.96.78-1.737 1.74-1.737A1.74 1.74 0 0 1 126 34.753c0 .96-.78 1.738-1.741 1.738a1.74 1.74 0 0 1-1.741-1.738zm-13.71 0c0-.96.78-1.737 1.741-1.737.962 0 1.741.778 1.741 1.737a1.74 1.74 0 1 1-3.482 0zm-13.492 0c0-.96.78-1.737 1.74-1.737.962 0 1.742.778 1.742 1.737 0 .96-.78 1.738-1.741 1.738a1.74 1.74 0 0 1-1.741-1.738zm-13.71 0c0-.96.78-1.737 1.741-1.737a1.74 1.74 0 0 1 1.741 1.737c0 .96-.78 1.738-1.741 1.738a1.74 1.74 0 0 1-1.741-1.738zm-13.492 0c0-.96.78-1.737 1.74-1.737a1.74 1.74 0 0 1 1.742 1.737c0 .96-.78 1.738-1.741 1.738a1.74 1.74 0 0 1-1.741-1.738zm-13.71 0c0-.96.78-1.737 1.74-1.737.963 0 1.742.778 1.742 1.737 0 .96-.78 1.738-1.741 1.738a1.74 1.74 0 0 1-1.741-1.738zm-13.492 0c0-.96.78-1.737 1.74-1.737a1.74 1.74 0 0 1 1.742 1.737c0 .96-.78 1.738-1.741 1.738a1.74 1.74 0 0 1-1.741-1.738zm-13.71 0c0-.96.78-1.737 1.74-1.737.962 0 1.742.778 1.742 1.737 0 .96-.78 1.738-1.741 1.738a1.74 1.74 0 0 1-1.741-1.738zm-13.492 0c0-.96.78-1.737 1.74-1.737a1.74 1.74 0 0 1 1.742 1.737c0 .96-.78 1.738-1.741 1.738a1.74 1.74 0 0 1-1.741-1.738zm-13.71 0c0-.96.78-1.737 1.74-1.737.962 0 1.742.778 1.742 1.737 0 .96-.78 1.738-1.741 1.738A1.74 1.74 0 0 1 0 34.753zm122.518-16.508c0-.96.78-1.737 1.74-1.737A1.74 1.74 0 0 1 126 18.245c0 .96-.78 1.738-1.741 1.738a1.74 1.74 0 0 1-1.741-1.738zm-13.71 0c0-.96.78-1.737 1.741-1.737.962 0 1.741.778 1.741 1.737a1.74 1.74 0 1 1-3.482 0zm-13.492 0c0-.96.78-1.737 1.74-1.737.962 0 1.742.778 1.742 1.737 0 .96-.78 1.738-1.741 1.738a1.74 1.74 0 0 1-1.741-1.738zm-13.71 0c0-.96.78-1.737 1.741-1.737a1.74 1.74 0 0 1 1.741 1.737c0 .96-.78 1.738-1.741 1.738a1.74 1.74 0 0 1-1.741-1.738zm-13.492 0c0-.96.78-1.737 1.74-1.737a1.74 1.74 0 0 1 1.742 1.737c0 .96-.78 1.738-1.741 1.738a1.74 1.74 0 0 1-1.741-1.738zm-13.71 0c0-.96.78-1.737 1.74-1.737a1.74 1.74 0 0 1 1.742 1.737c0 .96-.78 1.738-1.741 1.738a1.74 1.74 0 0 1-1.741-1.738zm-13.492 0c0-.96.78-1.737 1.74-1.737a1.74 1.74 0 0 1 1.742 1.737c0 .96-.78 1.738-1.741 1.738a1.74 1.74 0 0 1-1.741-1.738zm-13.71 0c0-.96.78-1.737 1.74-1.737.962 0 1.742.778 1.742 1.737 0 .96-.78 1.738-1.741 1.738a1.74 1.74 0 0 1-1.741-1.738zm-13.492 0c0-.96.78-1.737 1.74-1.737a1.74 1.74 0 0 1 1.742 1.737c0 .96-.78 1.738-1.741 1.738a1.74 1.74 0 0 1-1.741-1.738zm-13.71 0c0-.96.78-1.737 1.74-1.737.962 0 1.742.778 1.742 1.737 0 .96-.78 1.738-1.741 1.738A1.74 1.74 0 0 1 0 18.245zM122.518 1.737c0-.96.78-1.738 1.74-1.738A1.74 1.74 0 0 1 126 1.737c0 .96-.78 1.738-1.741 1.738a1.74 1.74 0 0 1-1.741-1.738zm-13.71 0c0-.96.78-1.738 1.741-1.738.962 0 1.741.778 1.741 1.738s-.78 1.738-1.74 1.738a1.74 1.74 0 0 1-1.742-1.738zm-13.492 0c0-.96.78-1.738 1.74-1.738.962 0 1.742.778 1.742 1.738s-.78 1.738-1.741 1.738a1.74 1.74 0 0 1-1.741-1.738zm-13.71 0c0-.96.78-1.738 1.741-1.738a1.74 1.74 0 0 1 1.741 1.738c0 .96-.78 1.738-1.741 1.738a1.74 1.74 0 0 1-1.741-1.738zm-13.492 0c0-.96.78-1.738 1.74-1.738a1.74 1.74 0 0 1 1.742 1.738c0 .96-.78 1.738-1.741 1.738a1.74 1.74 0 0 1-1.741-1.738zm-13.71 0c0-.96.78-1.738 1.74-1.738a1.74 1.74 0 0 1 1.742 1.738c0 .96-.78 1.738-1.741 1.738a1.74 1.74 0 0 1-1.741-1.738zm-13.492 0c0-.96.78-1.738 1.74-1.738a1.74 1.74 0 0 1 1.742 1.738c0 .96-.78 1.738-1.741 1.738a1.74 1.74 0 0 1-1.741-1.738zm-13.71 0c0-.96.78-1.738 1.74-1.738.962 0 1.742.778 1.742 1.738s-.78 1.738-1.741 1.738a1.74 1.74 0 0 1-1.741-1.738zm-13.492 0c0-.96.78-1.738 1.74-1.738a1.74 1.74 0 0 1 1.742 1.738c0 .96-.78 1.738-1.741 1.738a1.74 1.74 0 0 1-1.741-1.738zM0 1.737C0 .777.78-.001 1.74-.001c.962 0 1.742.778 1.742 1.738s-.78 1.738-1.741 1.738A1.74 1.74 0 0 1 0 1.737z"/></g></g></svg>