<svg xmlns="http://www.w3.org/2000/svg" width="1626" height="368"><defs><filter id="nhkna" width="87" height="90" x="1550" y="289" filterUnits="userSpaceOnUse"><feOffset dy="3" in="SourceGraphic" result="FeOffset1032Out"/><feGaussianBlur in="FeOffset1032Out" result="FeGaussianBlur1033Out" stdDeviation="4 4"/></filter><mask id="nhknb" width="2" height="2" x="-1" y="-1"><path fill="#fff" d="M1570 309h47v47h-47z"/><path d="M1617.002 332.497c0 12.978-10.524 23.5-23.503 23.5-12.98 0-23.501-10.522-23.501-23.5s10.521-23.497 23.5-23.497c12.98 0 23.504 10.519 23.504 23.497zm-4.803 0c0-10.326-8.37-18.695-18.7-18.695-10.326 0-18.7 8.369-18.7 18.695 0 10.329 8.374 18.698 18.7 18.698 10.33 0 18.7-8.37 18.7-18.698zm-13.093.02a5.607 5.607 0 01-11.212-.037 5.603 5.603 0 015.623-5.586 5.604 5.604 0 015.589 5.623z"/></mask></defs><g filter="url(#nhkna)"><path fill="none" d="M1617.002 332.497c0 12.978-10.524 23.5-23.503 23.5-12.98 0-23.501-10.522-23.501-23.5s10.521-23.497 23.5-23.497c12.98 0 23.504 10.519 23.504 23.497zm-4.803 0c0-10.326-8.37-18.695-18.7-18.695-10.326 0-18.7 8.369-18.7 18.695 0 10.329 8.374 18.698 18.7 18.698 10.33 0 18.7-8.37 18.7-18.698zm-13.093.02a5.607 5.607 0 01-11.212-.037 5.603 5.603 0 015.623-5.586 5.604 5.604 0 015.589 5.623z" mask="url(&quot;#nhknb&quot;)"/><path fill="#fe3e57" fill-opacity=".5" d="M1617.002 332.497c0 12.978-10.524 23.5-23.503 23.5-12.98 0-23.501-10.522-23.501-23.5s10.521-23.497 23.5-23.497c12.98 0 23.504 10.519 23.504 23.497zm-4.803 0c0-10.326-8.37-18.695-18.7-18.695-10.326 0-18.7 8.369-18.7 18.695 0 10.329 8.374 18.698 18.7 18.698 10.33 0 18.7-8.37 18.7-18.698zm-13.093.02a5.607 5.607 0 01-11.212-.037 5.603 5.603 0 015.623-5.586 5.604 5.604 0 015.589 5.623z"/></g><path fill="#fe3e57" d="M1617.002 332.497c0 12.978-10.524 23.5-23.503 23.5-12.98 0-23.501-10.522-23.501-23.5s10.521-23.497 23.5-23.497c12.98 0 23.504 10.519 23.504 23.497zm-4.803 0c0-10.326-8.37-18.695-18.7-18.695-10.326 0-18.7 8.369-18.7 18.695 0 10.329 8.374 18.698 18.7 18.698 10.33 0 18.7-8.37 18.7-18.698zm-13.093.02a5.607 5.607 0 01-11.212-.037 5.603 5.603 0 015.623-5.586 5.604 5.604 0 015.589 5.623z"/><path fill="#34c3ff" d="M83.559 30.924a2.16 2.16 0 01-4.322 0 2.16 2.16 0 114.322 0zm-14.407 0a2.16 2.16 0 11-4.322 0 2.16 2.16 0 012.162-2.159 2.16 2.16 0 012.16 2.159zm0-14.385a2.159 2.159 0 01-2.16 2.158 2.16 2.16 0 01-2.163-2.158 2.16 2.16 0 014.323 0zm-14.406 0a2.16 2.16 0 01-2.161 2.158h-.001a2.16 2.16 0 01-2.162-2.158 2.16 2.16 0 012.162-2.158 2.16 2.16 0 012.162 2.158zm21.609 21.577a2.16 2.16 0 01-2.16 2.156 2.159 2.159 0 01-2.16-2.156c0-1.193.967-2.158 2.16-2.158 1.192 0 2.16.965 2.16 2.158zm14.408 0a2.16 2.16 0 01-2.161 2.156 2.16 2.16 0 01-2.162-2.156 2.16 2.16 0 012.162-2.158 2.16 2.16 0 012.161 2.158zM76.355 23.73a2.159 2.159 0 01-2.16 2.158 2.159 2.159 0 110-4.316 2.16 2.16 0 012.16 2.158zm-14.406 0a2.16 2.16 0 01-2.161 2.158 2.16 2.16 0 01-2.163-2.158 2.16 2.16 0 012.163-2.158 2.16 2.16 0 012.161 2.158zm36.016 35.96a2.159 2.159 0 01-2.16 2.157 2.16 2.16 0 01-2.161-2.157 2.16 2.16 0 012.161-2.158c1.193 0 2.16.966 2.16 2.158zm-14.406 0a2.16 2.16 0 01-2.161 2.157 2.158 2.158 0 010-4.315 2.16 2.16 0 012.161 2.158zm-14.407 0a2.159 2.159 0 01-2.16 2.157 2.16 2.16 0 01-2.163-2.157 2.16 2.16 0 012.163-2.158c1.193 0 2.16.966 2.16 2.158zm28.813-14.385a2.159 2.159 0 01-2.16 2.159 2.16 2.16 0 01-2.161-2.159 2.16 2.16 0 014.32 0zm-14.406 0a2.16 2.16 0 01-2.161 2.159 2.159 2.159 0 110-4.316 2.16 2.16 0 012.161 2.157zm-14.407 0a2.159 2.159 0 01-2.16 2.159 2.16 2.16 0 01-2.163-2.159 2.16 2.16 0 012.163-2.157 2.16 2.16 0 012.16 2.157zm-14.406 0a2.16 2.16 0 01-2.161 2.159h-.001a2.16 2.16 0 01-2.162-2.159 2.16 2.16 0 012.162-2.157 2.16 2.16 0 012.162 2.157zm21.609 21.577a2.159 2.159 0 01-2.16 2.157 2.159 2.159 0 01-2.16-2.157 2.16 2.16 0 012.16-2.158 2.16 2.16 0 012.16 2.158zm14.408 0a2.16 2.16 0 01-2.161 2.157 2.159 2.159 0 01-2.162-2.157 2.16 2.16 0 012.162-2.158 2.16 2.16 0 012.161 2.158zM76.355 52.5a2.159 2.159 0 01-2.16 2.157 2.159 2.159 0 010-4.315 2.16 2.16 0 012.16 2.158zM88.6 54.656a2.159 2.159 0 010-4.315 2.16 2.16 0 012.16 2.158 2.16 2.16 0 01-2.16 2.157zm16.568-2.157a2.16 2.16 0 01-2.16 2.157 2.16 2.16 0 01-2.163-2.157 2.16 2.16 0 012.163-2.158c1.19 0 2.16.966 2.16 2.158zm-43.22 0a2.16 2.16 0 01-2.161 2.157 2.16 2.16 0 01-2.163-2.157 2.16 2.16 0 012.163-2.158 2.16 2.16 0 012.161 2.158zm7.203 35.96a2.159 2.159 0 01-2.16 2.157 2.16 2.16 0 01-2.163-2.158 2.16 2.16 0 012.163-2.157c1.193 0 2.16.965 2.16 2.157zm14.407-14.385a2.16 2.16 0 01-2.161 2.158 2.159 2.159 0 110-4.316 2.16 2.16 0 012.161 2.158zm-14.407 0a2.159 2.159 0 01-2.16 2.158 2.16 2.16 0 01-2.163-2.158 2.16 2.16 0 014.323 0zm-14.406 0a2.16 2.16 0 01-2.161 2.158h-.001a2.16 2.16 0 01-2.162-2.158 2.16 2.16 0 012.162-2.158 2.16 2.16 0 012.162 2.158zm21.609 7.192a2.16 2.16 0 01-4.32 0 2.16 2.16 0 014.32 0zm-14.406 0a2.16 2.16 0 01-2.161 2.159 2.16 2.16 0 01-2.163-2.159 2.16 2.16 0 012.163-2.158 2.16 2.16 0 012.161 2.158zm-7.203 21.576a2.16 2.16 0 01-2.16 2.158h-.001a2.16 2.16 0 01-2.162-2.157 2.16 2.16 0 012.162-2.158 2.16 2.16 0 012.162 2.158zM50.422 2.155a2.16 2.16 0 012.162-2.158 2.16 2.16 0 012.16 2.158 2.16 2.16 0 01-2.16 2.158 2.16 2.16 0 01-2.162-2.158zm-2.88 7.192a2.16 2.16 0 01-2.162 2.158 2.159 2.159 0 01-2.16-2.158c0-1.192.967-2.157 2.16-2.157a2.16 2.16 0 012.162 2.157zm10.083 0a2.16 2.16 0 012.163-2.157 2.16 2.16 0 012.16 2.157 2.16 2.16 0 01-2.16 2.158 2.16 2.16 0 01-2.163-2.158zm-7.203 21.577a2.16 2.16 0 012.162-2.159 2.16 2.16 0 012.16 2.159 2.16 2.16 0 01-4.322 0zm-2.88 7.192a2.16 2.16 0 01-2.162 2.156 2.159 2.159 0 01-2.16-2.156c0-1.193.967-2.158 2.16-2.158a2.16 2.16 0 012.162 2.158zm10.083 0a2.16 2.16 0 012.163-2.158 2.16 2.16 0 012.16 2.158 2.16 2.16 0 01-2.16 2.156 2.16 2.16 0 01-2.163-2.156zM47.542 23.73a2.16 2.16 0 01-2.162 2.158 2.159 2.159 0 110-4.316 2.16 2.16 0 012.162 2.158zm-14.407 0a2.158 2.158 0 01-2.16 2.158h-.001a2.162 2.162 0 01-2.161-2.158 2.163 2.163 0 012.161-2.158 2.158 2.158 0 012.16 2.158zm17.287 35.96a2.16 2.16 0 012.162-2.158 2.16 2.16 0 012.16 2.158 2.16 2.16 0 01-2.16 2.157 2.16 2.16 0 01-2.162-2.157zm-2.88 7.192a2.16 2.16 0 01-2.162 2.157 2.159 2.159 0 01-2.16-2.157 2.16 2.16 0 012.16-2.158 2.16 2.16 0 012.162 2.158zm10.083 0a2.16 2.16 0 012.163-2.158 2.16 2.16 0 012.16 2.158 2.16 2.16 0 01-2.16 2.157 2.16 2.16 0 01-2.163-2.157zM47.542 52.5a2.16 2.16 0 01-2.162 2.157 2.159 2.159 0 010-4.315 2.16 2.16 0 012.162 2.158zm-14.407 0a2.16 2.16 0 01-2.16 2.157h-.001a2.163 2.163 0 01-2.161-2.157 2.161 2.161 0 012.161-2.157 2.158 2.158 0 012.16 2.157zm17.287 35.96a2.16 2.16 0 012.162-2.158 2.16 2.16 0 012.16 2.157 2.16 2.16 0 01-2.16 2.158 2.16 2.16 0 01-2.162-2.158zm-2.88 7.191a2.16 2.16 0 01-2.162 2.157 2.159 2.159 0 01-2.16-2.157c0-1.192.967-2.157 2.16-2.157a2.16 2.16 0 012.162 2.157zm14.406 0a2.16 2.16 0 01-2.16 2.157 2.16 2.16 0 01-2.163-2.157 2.16 2.16 0 012.163-2.157 2.16 2.16 0 012.16 2.157zM47.542 81.266a2.16 2.16 0 01-4.323 0 2.16 2.16 0 012.16-2.158 2.16 2.16 0 012.163 2.158zm-14.407 0a2.158 2.158 0 01-2.16 2.159h-.001a2.163 2.163 0 01-2.161-2.159 2.163 2.163 0 012.161-2.158 2.158 2.158 0 012.16 2.158zm7.032-51.182c.11.258.17.54.17.84a2.158 2.158 0 01-2.159 2.158 2.162 2.162 0 01-2.161-2.158 2.152 2.152 0 012.16-2.159h.002c.894 0 1.66.544 1.988 1.319zm-14.235.84a2.16 2.16 0 01-4.323 0 2.16 2.16 0 012.16-2.159 2.16 2.16 0 012.163 2.159zm14.235-15.225a2.142 2.142 0 010 1.68 2.159 2.159 0 01-1.988 1.318h-.001a2.162 2.162 0 01-1.992-1.318 2.16 2.16 0 011.992-2.998c.895 0 1.662.544 1.989 1.318zM18.728 38.116a2.16 2.16 0 01-2.162 2.156 2.158 2.158 0 110-4.314 2.16 2.16 0 012.162 2.158zm14.407 0a2.16 2.16 0 01-2.16 2.156 2.159 2.159 0 01-2.162-2.156c0-1.193.967-2.158 2.162-2.158a2.16 2.16 0 012.16 2.158zm7.032 20.735c.11.257.17.543.17.84a2.157 2.157 0 01-2.159 2.158 2.16 2.16 0 01-2.161-2.158 2.154 2.154 0 012.16-2.158h.002c.894 0 1.66.544 1.988 1.318zm-14.235.84a2.16 2.16 0 01-2.162 2.157 2.158 2.158 0 010-4.315 2.16 2.16 0 012.162 2.158zm-14.408 0a2.159 2.159 0 01-2.16 2.157 2.16 2.16 0 01-2.162-2.157 2.16 2.16 0 012.162-2.158c1.193 0 2.16.966 2.16 2.158zm28.643-15.224c.11.258.17.542.17.84a2.158 2.158 0 01-2.159 2.158 2.162 2.162 0 01-2.161-2.159 2.157 2.157 0 012.16-2.157h.002c.894 0 1.66.543 1.988 1.318zm-14.235.84a2.16 2.16 0 01-2.162 2.158 2.159 2.159 0 110-4.316 2.16 2.16 0 012.162 2.157zm-14.408 0a2.159 2.159 0 01-2.16 2.158 2.16 2.16 0 01-2.162-2.159 2.16 2.16 0 012.162-2.157 2.16 2.16 0 012.16 2.157zm7.204 21.576a2.16 2.16 0 01-2.162 2.157 2.158 2.158 0 110-4.315 2.16 2.16 0 012.162 2.158zm14.407 0a2.16 2.16 0 01-2.16 2.157 2.159 2.159 0 110-4.315 2.16 2.16 0 012.16 2.158zM18.728 52.5a2.16 2.16 0 01-2.162 2.157 2.158 2.158 0 110-4.315 2.16 2.16 0 012.162 2.158zm-14.406 0a2.16 2.16 0 01-2.162 2.157A2.16 2.16 0 010 52.5a2.16 2.16 0 012.161-2.158A2.16 2.16 0 014.322 52.5zm35.845 35.12c.11.258.17.54.17.84a2.158 2.158 0 01-2.159 2.158v-.001a2.161 2.161 0 01-2.161-2.158c0-.298.06-.581.169-.84a2.161 2.161 0 011.992-1.317c.895 0 1.662.543 1.989 1.317zm0-14.385c.11.259.17.543.17.84a2.158 2.158 0 01-2.159 2.158 2.161 2.161 0 01-2.161-2.158 2.16 2.16 0 012.161-2.158c.895 0 1.662.544 1.989 1.318zm-14.235.84a2.16 2.16 0 01-2.162 2.158 2.159 2.159 0 110-4.316 2.16 2.16 0 012.162 2.158z"/></svg>