<svg xmlns="http://www.w3.org/2000/svg" width="20" height="21"><path fill="#fe3e57" d="M20 10.55a9.933 9.933 0 01-2.93 7.072A9.936 9.936 0 0110 20.55a9.936 9.936 0 01-7.071-2.928 9.937 9.937 0 01-2.93-7.072A9.934 9.934 0 012.93 3.48 9.935 9.935 0 0110 .55a9.935 9.935 0 017.07 2.93A9.935 9.935 0 0120 10.55zm-1.172 0c0-4.868-3.96-8.828-8.828-8.828-4.868 0-8.828 3.96-8.828 8.828 0 4.868 3.96 8.828 8.828 8.828 4.868 0 8.828-3.96 8.828-8.828zm-4.05-3.208c.228.229.228.6 0 .828l-5.59 5.589a.584.584 0 01-.828 0L5.222 10.62a.586.586 0 01.829-.829l2.724 2.724 5.174-5.174a.586.586 0 01.828 0z"/></svg>