<svg xmlns="http://www.w3.org/2000/svg" width="20" height="20"><path fill="#8d8d8d" d="M17.895 5.261a.833.833 0 011.113.387A9.9 9.9 0 0120 10c0 5.514-4.486 10-10 10S0 15.514 0 10 4.486 0 10 0c2.252 0 4.458.767 6.21 2.16a.832.832 0 11-1.037 1.304A8.235 8.235 0 0010 1.666c-4.595 0-8.333 3.738-8.333 8.333 0 4.595 3.738 8.333 8.333 8.333 4.595 0 8.333-3.738 8.333-8.333a8.245 8.245 0 00-.825-3.624.833.833 0 01.387-1.114zM10 3.331c.46 0 .833.375.833.835v5h3.334a.834.834 0 010 1.666H10A.834.834 0 019.167 10V4.166c0-.46.373-.834.833-.834z"/></svg>