<svg xmlns="http://www.w3.org/2000/svg" width="14pt" height="14pt" viewBox="0 0 14 14"><path d="M12.563 4.148c.007.125.007.25.007.375 0 3.793-2.886 8.16-8.164 8.16A8.113 8.113 0 010 11.399c.23.028.453.036.691.036a5.736 5.736 0 003.563-1.227 2.87 2.87 0 01-2.68-1.988 4.1 4.1 0 00.54.043c.257 0 .515-.035.757-.098a2.868 2.868 0 01-2.3-2.816v-.035c.378.214.824.347 1.296.363a2.868 2.868 0 01-.89-3.836 8.154 8.154 0 005.918 3 3.043 3.043 0 01-.07-.656A2.864 2.864 0 019.69 1.316a2.85 2.85 0 012.098.907 5.677 5.677 0 001.82-.696 2.871 2.871 0 01-1.261 1.582A5.744 5.744 0 0014 2.664a6.176 6.176 0 01-1.438 1.484zm0 0" id="surface1"/></svg>