<svg xmlns="http://www.w3.org/2000/svg" width="20" height="20"><path fill="#8d8d8d" d="M20 19.999h-1.563c0-4.652-3.785-8.437-8.437-8.437-4.653 0-8.438 3.785-8.438 8.437H0a9.933 9.933 0 012.929-7.07 9.954 9.954 0 013.8-2.384 5.78 5.78 0 01-2.51-4.765A5.788 5.788 0 019.999 0a5.788 5.788 0 015.782 5.781 5.78 5.78 0 01-2.51 4.765 9.953 9.953 0 013.8 2.383A9.933 9.933 0 0120 19.998zm-10-10a4.224 4.224 0 004.219-4.219 4.223 4.223 0 00-4.22-4.218A4.223 4.223 0 005.782 5.78 4.224 4.224 0 0010 10z"/></svg>