<svg xmlns="http://www.w3.org/2000/svg" width="20" height="21" viewBox="0 0 20 21"><g><g><path fill="#fe3e57" d="M20 10.55c0 2.671-1.04 5.183-2.93 7.072A9.936 9.936 0 0 1 10 20.55a9.936 9.936 0 0 1-7.071-2.928 9.937 9.937 0 0 1-2.93-7.072C0 7.88 1.04 5.368 2.93 3.48A9.935 9.935 0 0 1 10 .55a9.935 9.935 0 0 1 7.07 2.93A9.935 9.935 0 0 1 20 10.55zm-1.172 0c0-4.868-3.96-8.828-8.828-8.828-4.868 0-8.828 3.96-8.828 8.828 0 4.868 3.96 8.828 8.828 8.828 4.868 0 8.828-3.96 8.828-8.828zm-4.05-3.208c.228.229.228.6 0 .828l-5.59 5.589a.584.584 0 0 1-.828 0L5.222 10.62a.586.586 0 0 1 .829-.829l2.724 2.724 5.174-5.174a.586.586 0 0 1 .828 0z"/></g></g></svg>