<svg viewBox="0 0 15 15">
  <path fill="#fff" d="M11.00761 9.68138l3.99216 3.99188-1.32568 1.32628-3.99216-3.99237c-1.008.73784-2.24625 1.17953-3.58841 1.17953-3.35999 0-6.09375-2.73354-6.09375-6.09347 0-3.36017 2.73376-6.09395 6.09375-6.09395s6.09375 2.73378 6.09375 6.09395c0 1.34199-.44163 2.58027-1.17966 3.58815zm-4.9141.63026c2.32635 0 4.21875-1.89223 4.21875-4.21841 0-2.32666-1.8924-4.21913-4.21875-4.21913-2.32635 0-4.21875 1.89247-4.21875 4.21913 0 2.32618 1.8924 4.21841 4.21875 4.21841z"/>
</svg>
