<?xml version="1.0" encoding="UTF-8"?>
<svg id="SVGDoc" width="15" height="15" xmlns="http://www.w3.org/2000/svg" version="1.1" xmlns:xlink="http://www.w3.org/1999/xlink" xmlns:avocode="https://avocode.com/" viewBox="0 0 15 15"><defs></defs><desc>Generated with Avocode.</desc><g><g><title>search_icon</title><path d="M11.00761,9.68138l3.99216,3.99188l-1.32568,1.32628l-3.99216,-3.99237c-1.008,0.73784 -2.24625,1.17953 -3.58841,1.17953c-3.35999,0 -6.09375,-2.73354 -6.09375,-6.09347c0,-3.36017 2.73376,-6.09395 6.09375,-6.09395c3.35999,0 6.09375,2.73378 6.09375,6.09395c0,1.34199 -0.44163,2.58027 -1.17966,3.58815zM6.09351,10.31164c2.32635,0 4.21875,-1.89223 4.21875,-4.21841c0,-2.32666 -1.8924,-4.21913 -4.21875,-4.21913c-2.32635,0 -4.21875,1.89247 -4.21875,4.21913c0,2.32618 1.8924,4.21841 4.21875,4.21841z" fill="#ffffff" fill-opacity="1"></path></g></g></svg>