<svg xmlns="http://www.w3.org/2000/svg" width="20" height="20" viewBox="0 0 20 20"><g><g><path fill="#8d8d8d" d="M17.895 5.261a.833.833 0 0 1 1.113.387A9.9 9.9 0 0 1 20 10c0 5.514-4.486 10-10 10s-10-4.486-10-10S4.486 0 10 0c2.252 0 4.458.767 6.21 2.16a.832.832 0 1 1-1.037 1.304A8.235 8.235 0 0 0 10 1.666c-4.595 0-8.333 3.738-8.333 8.333 0 4.595 3.738 8.333 8.333 8.333 4.595 0 8.333-3.738 8.333-8.333a8.245 8.245 0 0 0-.825-3.624.833.833 0 0 1 .387-1.114zM10 3.331c.46 0 .833.375.833.835v5h3.334a.834.834 0 0 1 0 1.666H10A.834.834 0 0 1 9.167 10V4.166c0-.46.373-.834.833-.834z"/></g></g></svg>